<?xml version="1.0" encoding="UTF-8"?>
<svg width="281px" height="486px" viewBox="0 0 281 486" version="1.1" xmlns="http://www.w3.org/2000/svg" xmlns:xlink="http://www.w3.org/1999/xlink">
    <!-- Generator: Sketch 49.3 (51167) - http://www.bohemiancoding.com/sketch -->
    <title>Group</title>
    <desc>Created with Sketch.</desc>
    <defs></defs>
    <g id="Page-1" stroke="none" stroke-width="1" fill="none" fill-rule="evenodd">
        <g id="Group" fill-rule="nonzero">
            <path d="M138.698,121.236 C158.658,85.16 278.267,93.445 280.153,55.987 C282.149,16.354 202.329,42.998 202.329,42.998 C202.329,42.998 240.039,0.474 185.568,0.474 C133.046,0.474 122.843,91.088 99.771,114.364 L138.698,121.236 Z" id="Shape" fill="#F75534"></path>
            <path d="M127.908,114.363 C149.089,92.994 159.428,14.882 201.619,2.222 C197.481,1.11 192.215,0.473 185.567,0.473 C133.045,0.473 122.842,91.087 99.77,114.363 L138.697,121.235 C139.556,119.681 140.613,118.216 141.824,116.82 L127.908,114.363 Z" id="Shape" fill="#BD391E"></path>
            <path d="M59.251,415.609 C59.251,415.609 18.872,398.293 3.817,401.944 C-11.238,405.595 19.313,449.66 76.616,436.969 C76.616,436.968 83.39,422.029 59.251,415.609 Z" id="Shape" fill="#F75534"></path>
            <path d="M155.027,358.272 C155.027,358.272 150.745,314.545 158.781,301.301 C166.817,288.057 199.568,330.512 170.129,381.288 C170.128,381.288 153.841,383.223 155.027,358.272 Z" id="Shape" fill="#F75534"></path>
            <path d="M202.334,478.045 C191.481,485.75 176.767,486.322 164.024,484.929 C114.51,479.519 73.239,441.019 49.625,400.682 C-31.876,261.461 66.707,102.738 202.334,43.001 C105.45,124.821 80.822,255.174 155.257,361.34 C171.89,385.063 227.419,444.296 202.334,478.045 Z" id="Shape" fill="#F75534"></path>
            <path d="M137.753,332.539 C136.642,336.01 135.091,338.758 132.181,339.459 C121.973,341.906 111.011,320.391 100.879,322.579 C90.649,324.789 96.319,348.827 86.92,351.618 C76.195,354.808 65.189,328.788 54.389,331.45 C43.912,334.037 49.754,361.039 41.669,363.777 C38.317,364.909 34.426,362.128 30.33,358.107 C17.967,320.52 17.233,282.394 25.458,245.938 C32.109,238.845 37.454,220.995 46.574,222.353 C57.213,223.949 57.892,249.818 67.614,250.131 C76.722,250.433 83.406,225.845 94.044,227.129 C103.12,228.218 104.596,247.523 112.972,250.994 C115.861,278.535 123.999,306.054 137.753,332.539 Z" id="Shape" fill="#F75534"></path>
            <path d="M51.642,233.029 C52.547,232.065 53.427,230.896 54.295,229.609 C52.318,225.81 49.947,222.859 46.573,222.353 C37.454,220.995 32.107,238.846 25.457,245.937 C17.233,282.392 17.966,320.519 30.329,358.106 C34.425,362.127 38.316,364.907 41.668,363.776 C49.275,361.2 44.556,337.149 52.699,332.159 C44.108,298.83 44.367,265.276 51.642,233.029 Z" id="Shape" fill="#BD391E"></path>
            <path d="M93.798,237.223 C96.332,237.307 98.678,235.462 100.973,232.787 C99.133,229.76 96.99,227.483 94.044,227.13 C91.299,226.799 88.82,228.197 86.491,230.438 C88.403,234.271 90.615,237.12 93.798,237.223 Z" id="Shape" fill="#F75534"></path>
            <path d="M80.573,318.541 C73.204,320.36 73.904,334.251 72.157,343.289 C77.106,348.476 82.041,353.07 86.919,351.619 C93.983,349.521 92.537,335.427 95.722,327.612 C90.661,322.267 85.595,317.302 80.573,318.541 Z" id="Shape" fill="#F75534"></path>
            <path d="M127.062,309.669 C119.63,311.274 120.587,324.397 118.063,332.527 C122.826,336.795 127.579,340.562 132.18,339.459 C135.09,338.758 136.643,336.01 137.752,332.539 C133.826,324.979 130.373,317.333 127.354,309.628 C127.258,309.643 127.16,309.649 127.062,309.669 Z" id="Shape" fill="#F75534"></path>
            <path d="M25.458,245.939 C45.173,158.627 116.292,80.898 202.33,42.999 C137.408,97.833 104.932,174.462 112.972,250.994 C104.597,247.523 103.12,228.217 94.044,227.129 C83.405,225.846 76.723,250.433 67.614,250.131 C57.891,249.819 57.212,223.948 46.574,222.353 C37.455,220.995 32.108,238.846 25.458,245.939 Z" id="Shape" fill="#F7EDE3"></path>
            <path d="M202.33,478.047 C191.476,485.754 176.762,486.326 164.022,484.925 C114.515,479.513 73.241,441.022 49.626,400.685 C41.412,386.651 35.02,372.422 30.332,358.108 C34.428,362.129 38.319,364.909 41.671,363.778 C49.755,361.04 43.913,334.038 54.391,331.451 C65.191,328.789 76.197,354.81 86.922,351.619 C96.321,348.827 90.651,324.789 100.881,322.58 C111.013,320.392 121.975,341.907 132.183,339.46 C135.093,338.759 136.646,336.011 137.755,332.54 C142.821,342.295 148.652,351.91 155.26,361.342 C171.89,385.066 227.423,444.298 202.33,478.047 Z" id="SVGCleanerId_0" fill="#F7EDE3"></path>
            <path d="M202.33,478.047 C191.476,485.754 176.762,486.326 164.022,484.925 C114.515,479.513 73.241,441.022 49.626,400.685 C41.412,386.651 35.02,372.422 30.332,358.108 C34.428,362.129 38.319,364.909 41.671,363.778 C49.755,361.04 43.913,334.038 54.391,331.451 C65.191,328.789 76.197,354.81 86.922,351.619 C96.321,348.827 90.651,324.789 100.881,322.58 C111.013,320.392 121.975,341.907 132.183,339.46 C135.093,338.759 136.646,336.011 137.755,332.54 C142.821,342.295 148.652,351.91 155.26,361.342 C171.89,385.066 227.423,444.298 202.33,478.047 Z" id="SVGCleanerId_0_1_" fill="#F7EDE3"></path>
            <path d="M193.098,477.751 C139.569,470.832 94.944,421.609 69.409,370.028 C63.146,357.372 57.884,344.591 53.535,331.736 C44.237,335.563 49.523,361.117 41.669,363.778 C38.317,364.91 34.426,362.129 30.33,358.108 C35.018,372.423 41.411,386.651 49.624,400.685 C73.241,441.021 114.513,479.513 164.02,484.925 C176.516,486.299 190.901,485.759 201.691,478.466 C198.775,478.365 195.892,478.114 193.098,477.751 Z" id="Shape" fill="#DBD2CA"></path>
            <circle id="Oval" fill="#BD391E" cx="153.883" cy="447.341" r="8.084"></circle>
            <path d="M81.775,209.395 C81.548,209.395 81.32,209.386 81.091,209.366 C76.642,208.993 73.338,205.084 73.711,200.635 C76.938,162.149 99.591,121.428 139.22,82.871 C168.737,54.153 196.934,36.822 198.12,36.099 C201.931,33.773 206.907,34.977 209.231,38.789 C211.556,42.599 210.353,47.572 206.545,49.899 C205.449,50.569 96.878,117.863 89.823,201.987 C89.468,206.205 85.933,209.394 81.775,209.395 Z" id="Shape" fill="#F75534"></path>
        </g>
    </g>
</svg>